<?xml version="1.0" standalone="no"?>
 <!DOCTYPE svg PUBLIC "-//W3C//DTD SVG 1.1//EN" 
 "http://www.w3.org/Graphics/SVG/1.1/DTD/svg11.dtd"> 
<svg xmlns="http://www.w3.org/2000/svg" version="1.1" 
    width="29.7002cm" height="21.0007cm" viewBox="0 0 116930 82680 ">
<title>SVG Picture created as controller_circuit-brd.svg date 2018/03/30 15:08:50 </title>
  <desc>Picture generated by PCBNEW </desc>
<g style="fill:#000000; fill-opacity:1;stroke:#000000; stroke-opacity:1;
stroke-linecap:round; stroke-linejoin:round; "
 transform="translate(0 0) scale(1 1)">
</g>
<g style="fill:#000000; fill-opacity:0.0; 
stroke:#000000; stroke-width:-0.000393701; stroke-opacity:1; 
stroke-linecap:round; stroke-linejoin:round;">
</g>
<g style="fill:#000000; fill-opacity:0.0; 
stroke:#000000; stroke-width:39.3701; stroke-opacity:1; 
stroke-linecap:round; stroke-linejoin:round;">
</g>
<g style="fill:#000000; fill-opacity:0.0; 
stroke:#000000; stroke-width:59.0551; stroke-opacity:1; 
stroke-linecap:round; stroke-linejoin:round;">
<rect x="69685.9" y="65357.2" width="42519.7" height="12598.4" rx="0" />
</g>
<g style="fill:#000000; fill-opacity:0.0; 
stroke:#000000; stroke-width:39.3701; stroke-opacity:1; 
stroke-linecap:round; stroke-linejoin:round;">
</g>
<g style="fill:#000000; fill-opacity:0.0; 
stroke:#000000; stroke-width:59.0551; stroke-opacity:1; 
stroke-linecap:round; stroke-linejoin:round;">
<rect x="3937.01" y="3937.01" width="109056" height="74806" rx="0" />
</g>
<g style="fill:#000000; fill-opacity:0.0; 
stroke:#000000; stroke-width:39.3701; stroke-opacity:1; 
stroke-linecap:round; stroke-linejoin:round;">
</g>
<g style="fill:#000000; fill-opacity:0.0; 
stroke:#000000; stroke-width:59.0551; stroke-opacity:1; 
stroke-linecap:round; stroke-linejoin:round;">
<rect x="4724.41" y="4724.41" width="107481" height="73231.2" rx="0" />
</g>
<g style="fill:#000000; fill-opacity:0.0; 
stroke:#000000; stroke-width:39.3701; stroke-opacity:1; 
stroke-linecap:round; stroke-linejoin:round;">
</g>
<g style="fill:#000000; fill-opacity:0.0; 
stroke:#000000; stroke-width:59.0551; stroke-opacity:1; 
stroke-linecap:round; stroke-linejoin:round;">
<path d="M23622 4724
L23622 3937
" />
</g>
<g style="fill:#000000; fill-opacity:0.0; 
stroke:#000000; stroke-width:39.3701; stroke-opacity:1; 
stroke-linecap:round; stroke-linejoin:round;">
</g>
<g style="fill:#000000; fill-opacity:0.0; 
stroke:#000000; stroke-width:59.0551; stroke-opacity:1; 
stroke-linecap:round; stroke-linejoin:round;">
<path d="M43307 4724
L43307 3937
" />
</g>
<g style="fill:#000000; fill-opacity:0.0; 
stroke:#000000; stroke-width:39.3701; stroke-opacity:1; 
stroke-linecap:round; stroke-linejoin:round;">
</g>
<g style="fill:#000000; fill-opacity:0.0; 
stroke:#000000; stroke-width:59.0551; stroke-opacity:1; 
stroke-linecap:round; stroke-linejoin:round;">
<path d="M62992 4724
L62992 3937
" />
</g>
<g style="fill:#000000; fill-opacity:0.0; 
stroke:#000000; stroke-width:39.3701; stroke-opacity:1; 
stroke-linecap:round; stroke-linejoin:round;">
</g>
<g style="fill:#000000; fill-opacity:0.0; 
stroke:#000000; stroke-width:59.0551; stroke-opacity:1; 
stroke-linecap:round; stroke-linejoin:round;">
<path d="M82677 4724
L82677 3937
" />
</g>
<g style="fill:#000000; fill-opacity:0.0; 
stroke:#000000; stroke-width:39.3701; stroke-opacity:1; 
stroke-linecap:round; stroke-linejoin:round;">
</g>
<g style="fill:#000000; fill-opacity:0.0; 
stroke:#000000; stroke-width:59.0551; stroke-opacity:1; 
stroke-linecap:round; stroke-linejoin:round;">
<path d="M102362 4724
L102362 3937
" />
</g>
<g style="fill:#000000; fill-opacity:0.0; 
stroke:#000000; stroke-width:39.3701; stroke-opacity:1; 
stroke-linecap:round; stroke-linejoin:round;">
</g>
<g style="fill:#000000; fill-opacity:0.0; 
stroke:#000000; stroke-width:59.0551; stroke-opacity:1; 
stroke-linecap:round; stroke-linejoin:round;">
<path d="M14169 4562
L13877 4562
" />
<path d="M14023 4562
L14023 4050
L13974 4123
L13925 4172
L13877 4196
" />
</g>
<g style="fill:#000000; fill-opacity:0.0; 
stroke:#000000; stroke-width:39.3701; stroke-opacity:1; 
stroke-linecap:round; stroke-linejoin:round;">
</g>
<g style="fill:#000000; fill-opacity:0.0; 
stroke:#000000; stroke-width:59.0551; stroke-opacity:1; 
stroke-linecap:round; stroke-linejoin:round;">
<path d="M33562 4099
L33586 4074
L33635 4050
L33757 4050
L33805 4074
L33830 4099
L33854 4147
L33854 4196
L33830 4269
L33537 4562
L33854 4562
" />
</g>
<g style="fill:#000000; fill-opacity:0.0; 
stroke:#000000; stroke-width:39.3701; stroke-opacity:1; 
stroke-linecap:round; stroke-linejoin:round;">
</g>
<g style="fill:#000000; fill-opacity:0.0; 
stroke:#000000; stroke-width:59.0551; stroke-opacity:1; 
stroke-linecap:round; stroke-linejoin:round;">
<path d="M53222 4050
L53539 4050
L53368 4245
L53442 4245
L53490 4269
L53515 4294
L53539 4342
L53539 4464
L53515 4513
L53490 4537
L53442 4562
L53295 4562
L53247 4537
L53222 4513
" />
</g>
<g style="fill:#000000; fill-opacity:0.0; 
stroke:#000000; stroke-width:39.3701; stroke-opacity:1; 
stroke-linecap:round; stroke-linejoin:round;">
</g>
<g style="fill:#000000; fill-opacity:0.0; 
stroke:#000000; stroke-width:59.0551; stroke-opacity:1; 
stroke-linecap:round; stroke-linejoin:round;">
<path d="M73175 4221
L73175 4562
" />
<path d="M73053 4026
L72932 4391
L73248 4391
" />
</g>
<g style="fill:#000000; fill-opacity:0.0; 
stroke:#000000; stroke-width:39.3701; stroke-opacity:1; 
stroke-linecap:round; stroke-linejoin:round;">
</g>
<g style="fill:#000000; fill-opacity:0.0; 
stroke:#000000; stroke-width:59.0551; stroke-opacity:1; 
stroke-linecap:round; stroke-linejoin:round;">
<path d="M92885 4050
L92641 4050
L92617 4294
L92641 4269
L92690 4245
L92812 4245
L92860 4269
L92885 4294
L92909 4342
L92909 4464
L92885 4513
L92860 4537
L92812 4562
L92690 4562
L92641 4537
L92617 4513
" />
</g>
<g style="fill:#000000; fill-opacity:0.0; 
stroke:#000000; stroke-width:39.3701; stroke-opacity:1; 
stroke-linecap:round; stroke-linejoin:round;">
</g>
<g style="fill:#000000; fill-opacity:0.0; 
stroke:#000000; stroke-width:59.0551; stroke-opacity:1; 
stroke-linecap:round; stroke-linejoin:round;">
<path d="M112545 4050
L112448 4050
L112399 4074
L112375 4099
L112326 4172
L112302 4269
L112302 4464
L112326 4513
L112350 4537
L112399 4562
L112497 4562
L112545 4537
L112570 4513
L112594 4464
L112594 4342
L112570 4294
L112545 4269
L112497 4245
L112399 4245
L112350 4269
L112326 4294
L112302 4342
" />
</g>
<g style="fill:#000000; fill-opacity:0.0; 
stroke:#000000; stroke-width:39.3701; stroke-opacity:1; 
stroke-linecap:round; stroke-linejoin:round;">
</g>
<g style="fill:#000000; fill-opacity:0.0; 
stroke:#000000; stroke-width:59.0551; stroke-opacity:1; 
stroke-linecap:round; stroke-linejoin:round;">
<path d="M23622 77955
L23622 78742
" />
</g>
<g style="fill:#000000; fill-opacity:0.0; 
stroke:#000000; stroke-width:39.3701; stroke-opacity:1; 
stroke-linecap:round; stroke-linejoin:round;">
</g>
<g style="fill:#000000; fill-opacity:0.0; 
stroke:#000000; stroke-width:59.0551; stroke-opacity:1; 
stroke-linecap:round; stroke-linejoin:round;">
<path d="M43307 77955
L43307 78742
" />
</g>
<g style="fill:#000000; fill-opacity:0.0; 
stroke:#000000; stroke-width:39.3701; stroke-opacity:1; 
stroke-linecap:round; stroke-linejoin:round;">
</g>
<g style="fill:#000000; fill-opacity:0.0; 
stroke:#000000; stroke-width:59.0551; stroke-opacity:1; 
stroke-linecap:round; stroke-linejoin:round;">
<path d="M62992 77955
L62992 78742
" />
</g>
<g style="fill:#000000; fill-opacity:0.0; 
stroke:#000000; stroke-width:39.3701; stroke-opacity:1; 
stroke-linecap:round; stroke-linejoin:round;">
</g>
<g style="fill:#000000; fill-opacity:0.0; 
stroke:#000000; stroke-width:59.0551; stroke-opacity:1; 
stroke-linecap:round; stroke-linejoin:round;">
<path d="M82677 77955
L82677 78742
" />
</g>
<g style="fill:#000000; fill-opacity:0.0; 
stroke:#000000; stroke-width:39.3701; stroke-opacity:1; 
stroke-linecap:round; stroke-linejoin:round;">
</g>
<g style="fill:#000000; fill-opacity:0.0; 
stroke:#000000; stroke-width:59.0551; stroke-opacity:1; 
stroke-linecap:round; stroke-linejoin:round;">
<path d="M102362 77955
L102362 78742
" />
</g>
<g style="fill:#000000; fill-opacity:0.0; 
stroke:#000000; stroke-width:39.3701; stroke-opacity:1; 
stroke-linecap:round; stroke-linejoin:round;">
</g>
<g style="fill:#000000; fill-opacity:0.0; 
stroke:#000000; stroke-width:59.0551; stroke-opacity:1; 
stroke-linecap:round; stroke-linejoin:round;">
<path d="M14169 78580
L13877 78580
" />
<path d="M14023 78580
L14023 78069
L13974 78142
L13925 78190
L13877 78215
" />
</g>
<g style="fill:#000000; fill-opacity:0.0; 
stroke:#000000; stroke-width:39.3701; stroke-opacity:1; 
stroke-linecap:round; stroke-linejoin:round;">
</g>
<g style="fill:#000000; fill-opacity:0.0; 
stroke:#000000; stroke-width:59.0551; stroke-opacity:1; 
stroke-linecap:round; stroke-linejoin:round;">
<path d="M33562 78117
L33586 78093
L33635 78069
L33757 78069
L33805 78093
L33830 78117
L33854 78166
L33854 78215
L33830 78288
L33537 78580
L33854 78580
" />
</g>
<g style="fill:#000000; fill-opacity:0.0; 
stroke:#000000; stroke-width:39.3701; stroke-opacity:1; 
stroke-linecap:round; stroke-linejoin:round;">
</g>
<g style="fill:#000000; fill-opacity:0.0; 
stroke:#000000; stroke-width:59.0551; stroke-opacity:1; 
stroke-linecap:round; stroke-linejoin:round;">
<path d="M53222 78069
L53539 78069
L53368 78263
L53442 78263
L53490 78288
L53515 78312
L53539 78361
L53539 78483
L53515 78532
L53490 78556
L53442 78580
L53295 78580
L53247 78556
L53222 78532
" />
</g>
<g style="fill:#000000; fill-opacity:0.0; 
stroke:#000000; stroke-width:39.3701; stroke-opacity:1; 
stroke-linecap:round; stroke-linejoin:round;">
</g>
<g style="fill:#000000; fill-opacity:0.0; 
stroke:#000000; stroke-width:59.0551; stroke-opacity:1; 
stroke-linecap:round; stroke-linejoin:round;">
<path d="M73175 78239
L73175 78580
" />
<path d="M73053 78044
L72932 78410
L73248 78410
" />
</g>
<g style="fill:#000000; fill-opacity:0.0; 
stroke:#000000; stroke-width:39.3701; stroke-opacity:1; 
stroke-linecap:round; stroke-linejoin:round;">
</g>
<g style="fill:#000000; fill-opacity:0.0; 
stroke:#000000; stroke-width:59.0551; stroke-opacity:1; 
stroke-linecap:round; stroke-linejoin:round;">
<path d="M92885 78069
L92641 78069
L92617 78312
L92641 78288
L92690 78263
L92812 78263
L92860 78288
L92885 78312
L92909 78361
L92909 78483
L92885 78532
L92860 78556
L92812 78580
L92690 78580
L92641 78556
L92617 78532
" />
</g>
<g style="fill:#000000; fill-opacity:0.0; 
stroke:#000000; stroke-width:39.3701; stroke-opacity:1; 
stroke-linecap:round; stroke-linejoin:round;">
</g>
<g style="fill:#000000; fill-opacity:0.0; 
stroke:#000000; stroke-width:59.0551; stroke-opacity:1; 
stroke-linecap:round; stroke-linejoin:round;">
<path d="M112545 78069
L112448 78069
L112399 78093
L112375 78117
L112326 78190
L112302 78288
L112302 78483
L112326 78532
L112350 78556
L112399 78580
L112497 78580
L112545 78556
L112570 78532
L112594 78483
L112594 78361
L112570 78312
L112545 78288
L112497 78263
L112399 78263
L112350 78288
L112326 78312
L112302 78361
" />
</g>
<g style="fill:#000000; fill-opacity:0.0; 
stroke:#000000; stroke-width:39.3701; stroke-opacity:1; 
stroke-linecap:round; stroke-linejoin:round;">
</g>
<g style="fill:#000000; fill-opacity:0.0; 
stroke:#000000; stroke-width:59.0551; stroke-opacity:1; 
stroke-linecap:round; stroke-linejoin:round;">
<path d="M3937 23622
L4724 23622
" />
</g>
<g style="fill:#000000; fill-opacity:0.0; 
stroke:#000000; stroke-width:39.3701; stroke-opacity:1; 
stroke-linecap:round; stroke-linejoin:round;">
</g>
<g style="fill:#000000; fill-opacity:0.0; 
stroke:#000000; stroke-width:59.0551; stroke-opacity:1; 
stroke-linecap:round; stroke-linejoin:round;">
<path d="M3937 43307
L4724 43307
" />
</g>
<g style="fill:#000000; fill-opacity:0.0; 
stroke:#000000; stroke-width:39.3701; stroke-opacity:1; 
stroke-linecap:round; stroke-linejoin:round;">
</g>
<g style="fill:#000000; fill-opacity:0.0; 
stroke:#000000; stroke-width:59.0551; stroke-opacity:1; 
stroke-linecap:round; stroke-linejoin:round;">
<path d="M3937 62992
L4724 62992
" />
</g>
<g style="fill:#000000; fill-opacity:0.0; 
stroke:#000000; stroke-width:39.3701; stroke-opacity:1; 
stroke-linecap:round; stroke-linejoin:round;">
</g>
<g style="fill:#000000; fill-opacity:0.0; 
stroke:#000000; stroke-width:59.0551; stroke-opacity:1; 
stroke-linecap:round; stroke-linejoin:round;">
<path d="M4208 13864
L4452 13864
" />
<path d="M4160 14011
L4330 13499
L4501 14011
" />
</g>
<g style="fill:#000000; fill-opacity:0.0; 
stroke:#000000; stroke-width:39.3701; stroke-opacity:1; 
stroke-linecap:round; stroke-linejoin:round;">
</g>
<g style="fill:#000000; fill-opacity:0.0; 
stroke:#000000; stroke-width:59.0551; stroke-opacity:1; 
stroke-linecap:round; stroke-linejoin:round;">
<path d="M4367 33428
L4440 33452
L4464 33476
L4489 33525
L4489 33598
L4464 33647
L4440 33671
L4391 33696
L4196 33696
L4196 33184
L4367 33184
L4416 33208
L4440 33233
L4464 33281
L4464 33330
L4440 33379
L4416 33403
L4367 33428
L4196 33428
" />
</g>
<g style="fill:#000000; fill-opacity:0.0; 
stroke:#000000; stroke-width:39.3701; stroke-opacity:1; 
stroke-linecap:round; stroke-linejoin:round;">
</g>
<g style="fill:#000000; fill-opacity:0.0; 
stroke:#000000; stroke-width:59.0551; stroke-opacity:1; 
stroke-linecap:round; stroke-linejoin:round;">
<path d="M4489 53332
L4464 53356
L4391 53381
L4342 53381
L4269 53356
L4221 53308
L4196 53259
L4172 53161
L4172 53088
L4196 52991
L4221 52942
L4269 52893
L4342 52869
L4391 52869
L4464 52893
L4489 52918
" />
</g>
<g style="fill:#000000; fill-opacity:0.0; 
stroke:#000000; stroke-width:39.3701; stroke-opacity:1; 
stroke-linecap:round; stroke-linejoin:round;">
</g>
<g style="fill:#000000; fill-opacity:0.0; 
stroke:#000000; stroke-width:59.0551; stroke-opacity:1; 
stroke-linecap:round; stroke-linejoin:round;">
<path d="M4196 73066
L4196 72554
L4318 72554
L4391 72578
L4440 72627
L4464 72676
L4489 72773
L4489 72846
L4464 72944
L4440 72993
L4391 73041
L4318 73066
L4196 73066
" />
</g>
<g style="fill:#000000; fill-opacity:0.0; 
stroke:#000000; stroke-width:39.3701; stroke-opacity:1; 
stroke-linecap:round; stroke-linejoin:round;">
</g>
<g style="fill:#000000; fill-opacity:0.0; 
stroke:#000000; stroke-width:59.0551; stroke-opacity:1; 
stroke-linecap:round; stroke-linejoin:round;">
<path d="M112992 23622
L112205 23622
" />
</g>
<g style="fill:#000000; fill-opacity:0.0; 
stroke:#000000; stroke-width:39.3701; stroke-opacity:1; 
stroke-linecap:round; stroke-linejoin:round;">
</g>
<g style="fill:#000000; fill-opacity:0.0; 
stroke:#000000; stroke-width:59.0551; stroke-opacity:1; 
stroke-linecap:round; stroke-linejoin:round;">
<path d="M112992 43307
L112205 43307
" />
</g>
<g style="fill:#000000; fill-opacity:0.0; 
stroke:#000000; stroke-width:39.3701; stroke-opacity:1; 
stroke-linecap:round; stroke-linejoin:round;">
</g>
<g style="fill:#000000; fill-opacity:0.0; 
stroke:#000000; stroke-width:59.0551; stroke-opacity:1; 
stroke-linecap:round; stroke-linejoin:round;">
<path d="M112992 62992
L112205 62992
" />
</g>
<g style="fill:#000000; fill-opacity:0.0; 
stroke:#000000; stroke-width:39.3701; stroke-opacity:1; 
stroke-linecap:round; stroke-linejoin:round;">
</g>
<g style="fill:#000000; fill-opacity:0.0; 
stroke:#000000; stroke-width:59.0551; stroke-opacity:1; 
stroke-linecap:round; stroke-linejoin:round;">
<path d="M112477 13864
L112721 13864
" />
<path d="M112428 14011
L112599 13499
L112769 14011
" />
</g>
<g style="fill:#000000; fill-opacity:0.0; 
stroke:#000000; stroke-width:39.3701; stroke-opacity:1; 
stroke-linecap:round; stroke-linejoin:round;">
</g>
<g style="fill:#000000; fill-opacity:0.0; 
stroke:#000000; stroke-width:59.0551; stroke-opacity:1; 
stroke-linecap:round; stroke-linejoin:round;">
<path d="M112635 33428
L112708 33452
L112733 33476
L112757 33525
L112757 33598
L112733 33647
L112708 33671
L112660 33696
L112465 33696
L112465 33184
L112635 33184
L112684 33208
L112708 33233
L112733 33281
L112733 33330
L112708 33379
L112684 33403
L112635 33428
L112465 33428
" />
</g>
<g style="fill:#000000; fill-opacity:0.0; 
stroke:#000000; stroke-width:39.3701; stroke-opacity:1; 
stroke-linecap:round; stroke-linejoin:round;">
</g>
<g style="fill:#000000; fill-opacity:0.0; 
stroke:#000000; stroke-width:59.0551; stroke-opacity:1; 
stroke-linecap:round; stroke-linejoin:round;">
<path d="M112757 53332
L112733 53356
L112660 53381
L112611 53381
L112538 53356
L112489 53308
L112465 53259
L112440 53161
L112440 53088
L112465 52991
L112489 52942
L112538 52893
L112611 52869
L112660 52869
L112733 52893
L112757 52918
" />
</g>
<g style="fill:#000000; fill-opacity:0.0; 
stroke:#000000; stroke-width:39.3701; stroke-opacity:1; 
stroke-linecap:round; stroke-linejoin:round;">
</g>
<g style="fill:#000000; fill-opacity:0.0; 
stroke:#000000; stroke-width:59.0551; stroke-opacity:1; 
stroke-linecap:round; stroke-linejoin:round;">
<path d="M112465 73066
L112465 72554
L112587 72554
L112660 72578
L112708 72627
L112733 72676
L112757 72773
L112757 72846
L112733 72944
L112708 72993
L112660 73041
L112587 73066
L112465 73066
" />
</g>
<g style="fill:#000000; fill-opacity:0.0; 
stroke:#000000; stroke-width:39.3701; stroke-opacity:1; 
stroke-linecap:round; stroke-linejoin:round;">
</g>
<g style="fill:#000000; fill-opacity:0.0; 
stroke:#000000; stroke-width:59.0551; stroke-opacity:1; 
stroke-linecap:round; stroke-linejoin:round;">
<path d="M78881 76293
L78881 75703
L79022 75703
L79106 75731
L79162 75787
L79190 75843
L79219 75956
L79219 76040
L79190 76153
L79162 76209
L79106 76265
L79022 76293
L78881 76293
" />
<path d="M79725 76293
L79725 75984
L79697 75928
L79640 75899
L79528 75899
L79472 75928
" />
<path d="M79725 76265
L79669 76293
L79528 76293
L79472 76265
L79444 76209
L79444 76153
L79472 76096
L79528 76068
L79669 76068
L79725 76040
" />
<path d="M79922 75899
L80147 75899
" />
<path d="M80006 75703
L80006 76209
L80034 76265
L80090 76293
L80147 76293
" />
<path d="M80568 76265
L80512 76293
L80400 76293
L80343 76265
L80315 76209
L80315 75984
L80343 75928
L80400 75899
L80512 75899
L80568 75928
L80597 75984
L80597 76040
L80315 76096
" />
<path d="M80850 76237
L80878 76265
L80850 76293
L80822 76265
L80850 76237
L80850 76293
" />
<path d="M80850 75928
L80878 75956
L80850 75984
L80822 75956
L80850 75928
L80850 75984
" />
</g>
<g style="fill:#000000; fill-opacity:0.0; 
stroke:#000000; stroke-width:39.3701; stroke-opacity:1; 
stroke-linecap:round; stroke-linejoin:round;">
</g>
<g style="fill:#000000; fill-opacity:0.0; 
stroke:#000000; stroke-width:59.0551; stroke-opacity:1; 
stroke-linecap:round; stroke-linejoin:round;">
<path d="M69685 76577
L112205 76577
" />
</g>
<g style="fill:#000000; fill-opacity:0.0; 
stroke:#000000; stroke-width:39.3701; stroke-opacity:1; 
stroke-linecap:round; stroke-linejoin:round;">
</g>
<g style="fill:#000000; fill-opacity:0.0; 
stroke:#000000; stroke-width:59.0551; stroke-opacity:1; 
stroke-linecap:round; stroke-linejoin:round;">
<path d="M70220 77395
L70220 76805
" />
<path d="M70557 77395
L70304 77058
" />
<path d="M70557 76805
L70220 77142
" />
<path d="M70810 77395
L70810 77002
" />
<path d="M70810 76805
L70782 76833
L70810 76861
L70838 76833
L70810 76805
L70810 76861
" />
<path d="M71429 77339
L71401 77367
L71316 77395
L71260 77395
L71176 77367
L71120 77311
L71091 77255
L71063 77142
L71063 77058
L71091 76946
L71120 76889
L71176 76833
L71260 76805
L71316 76805
L71401 76833
L71429 76861
" />
<path d="M71935 77395
L71935 77086
L71907 77030
L71851 77002
L71738 77002
L71682 77030
" />
<path d="M71935 77367
L71879 77395
L71738 77395
L71682 77367
L71654 77311
L71654 77255
L71682 77199
L71738 77171
L71879 77171
L71935 77142
" />
<path d="M72469 77395
L72469 76805
" />
<path d="M72469 77367
L72413 77395
L72301 77395
L72244 77367
L72216 77339
L72188 77283
L72188 77114
L72216 77058
L72244 77030
L72301 77002
L72413 77002
L72469 77030
" />
<path d="M73201 77086
L73397 77086
" />
<path d="M73482 77395
L73201 77395
L73201 76805
L73482 76805
" />
<path d="M73735 77339
L73763 77367
L73735 77395
L73707 77367
L73735 77339
L73735 77395
" />
<path d="M74016 77395
L74016 76805
L74157 76805
L74241 76833
L74297 76889
L74325 76946
L74354 77058
L74354 77142
L74325 77255
L74297 77311
L74241 77367
L74157 77395
L74016 77395
" />
<path d="M74607 77339
L74635 77367
L74607 77395
L74579 77367
L74607 77339
L74607 77395
" />
<path d="M74860 77227
L75141 77227
" />
<path d="M74804 77395
L75000 76805
L75197 77395
" />
<path d="M75394 77339
L75422 77367
L75394 77395
L75366 77367
L75394 77339
L75394 77395
" />
<path d="M76575 77395
L76575 76805
" />
<path d="M76631 77171
L76800 77395
" />
<path d="M76800 77002
L76575 77227
" />
<path d="M77053 77395
L77053 77002
" />
<path d="M77053 76805
L77025 76833
L77053 76861
L77081 76833
L77053 76805
L77053 76861
" />
<path d="M77588 77367
L77531 77395
L77419 77395
L77363 77367
L77334 77339
L77306 77283
L77306 77114
L77334 77058
L77363 77030
L77419 77002
L77531 77002
L77588 77030
" />
<path d="M78094 77395
L78094 77086
L78066 77030
L78009 77002
L77897 77002
L77841 77030
" />
<path d="M78094 77367
L78037 77395
L77897 77395
L77841 77367
L77813 77311
L77813 77255
L77841 77199
L77897 77171
L78037 77171
L78094 77142
" />
<path d="M78628 77395
L78628 76805
" />
<path d="M78628 77367
L78572 77395
L78459 77395
L78403 77367
L78375 77339
L78347 77283
L78347 77114
L78375 77058
L78403 77030
L78459 77002
L78572 77002
L78628 77030
" />
<path d="M79612 77002
L79612 77395
" />
<path d="M79472 76777
L79331 77199
L79697 77199
" />
<path d="M79922 77339
L79950 77367
L79922 77395
L79894 77367
L79922 77339
L79922 77395
" />
<path d="M80315 76805
L80372 76805
L80428 76833
L80456 76861
L80484 76917
L80512 77030
L80512 77171
L80484 77283
L80456 77339
L80428 77367
L80372 77395
L80315 77395
L80259 77367
L80231 77339
L80203 77283
L80175 77171
L80175 77030
L80203 76917
L80231 76861
L80259 76833
L80315 76805
" />
<path d="M80765 77339
L80793 77367
L80765 77395
L80737 77367
L80765 77339
L80765 77395
" />
<path d="M80990 76805
L81384 76805
L81131 77395
" />
</g>
<g style="fill:#000000; fill-opacity:0.0; 
stroke:#000000; stroke-width:39.3701; stroke-opacity:1; 
stroke-linecap:round; stroke-linejoin:round;">
</g>
<g style="fill:#000000; fill-opacity:0.0; 
stroke:#000000; stroke-width:59.0551; stroke-opacity:1; 
stroke-linecap:round; stroke-linejoin:round;">
<path d="M69685 75396
L112205 75396
" />
</g>
<g style="fill:#000000; fill-opacity:0.0; 
stroke:#000000; stroke-width:39.3701; stroke-opacity:1; 
stroke-linecap:round; stroke-linejoin:round;">
</g>
<g style="fill:#000000; fill-opacity:0.0; 
stroke:#000000; stroke-width:118.11; stroke-opacity:1; 
stroke-linecap:round; stroke-linejoin:round;">
<path d="M104022 76293
L103825 76012
" />
<path d="M103684 76293
L103684 75703
L103909 75703
L103965 75731
L103994 75759
L104022 75815
L104022 75899
L103994 75956
L103965 75984
L103909 76012
L103684 76012
" />
<path d="M104500 76265
L104444 76293
L104331 76293
L104275 76265
L104247 76209
L104247 75984
L104275 75928
L104331 75899
L104444 75899
L104500 75928
L104528 75984
L104528 76040
L104247 76096
" />
<path d="M104725 75899
L104865 76293
L105006 75899
" />
<path d="M105231 76237
L105259 76265
L105231 76293
L105203 76265
L105231 76237
L105231 76293
" />
<path d="M105231 75928
L105259 75956
L105231 75984
L105203 75956
L105231 75928
L105231 75984
" />
</g>
<g style="fill:#000000; fill-opacity:0.0; 
stroke:#000000; stroke-width:39.3701; stroke-opacity:1; 
stroke-linecap:round; stroke-linejoin:round;">
</g>
<g style="fill:#000000; fill-opacity:0.0; 
stroke:#000000; stroke-width:59.0551; stroke-opacity:1; 
stroke-linecap:round; stroke-linejoin:round;">
<path d="M70192 76265
L70276 76293
L70417 76293
L70473 76265
L70501 76237
L70529 76181
L70529 76124
L70501 76068
L70473 76040
L70417 76012
L70304 75984
L70248 75956
L70220 75928
L70192 75871
L70192 75815
L70220 75759
L70248 75731
L70304 75703
L70445 75703
L70529 75731
" />
<path d="M70782 76293
L70782 75899
" />
<path d="M70782 75703
L70754 75731
L70782 75759
L70810 75731
L70782 75703
L70782 75759
" />
<path d="M71007 75899
L71316 75899
L71007 76293
L71316 76293
" />
<path d="M71766 76265
L71710 76293
L71598 76293
L71541 76265
L71513 76209
L71513 75984
L71541 75928
L71598 75899
L71710 75899
L71766 75928
L71795 75984
L71795 76040
L71513 76096
" />
<path d="M72048 76237
L72076 76265
L72048 76293
L72019 76265
L72048 76237
L72048 76293
" />
<path d="M72048 75928
L72076 75956
L72048 75984
L72019 75956
L72048 75928
L72048 75984
" />
<path d="M72751 76124
L73032 76124
" />
<path d="M72694 76293
L72891 75703
L73088 76293
" />
<path d="M73538 75899
L73538 76293
" />
<path d="M73397 75674
L73257 76096
L73622 76096
" />
</g>
<g style="fill:#000000; fill-opacity:0.0; 
stroke:#000000; stroke-width:39.3701; stroke-opacity:1; 
stroke-linecap:round; stroke-linejoin:round;">
</g>
<g style="fill:#000000; fill-opacity:0.0; 
stroke:#000000; stroke-width:59.0551; stroke-opacity:1; 
stroke-linecap:round; stroke-linejoin:round;">
<path d="M103684 77395
L103684 76805
" />
<path d="M104219 77395
L104219 76805
" />
<path d="M104219 77367
L104162 77395
L104050 77395
L103994 77367
L103965 77339
L103937 77283
L103937 77114
L103965 77058
L103994 77030
L104050 77002
L104162 77002
L104219 77030
" />
<path d="M104500 77339
L104528 77367
L104500 77395
L104472 77367
L104500 77339
L104500 77395
" />
<path d="M104500 77030
L104528 77058
L104500 77086
L104472 77058
L104500 77030
L104500 77086
" />
<path d="M105540 77395
L105203 77395
" />
<path d="M105372 77395
L105372 76805
L105315 76889
L105259 76946
L105203 76974
" />
<path d="M106215 76777
L105709 77536
" />
<path d="M106721 77395
L106384 77395
" />
<path d="M106553 77395
L106553 76805
L106496 76889
L106440 76946
L106384 76974
" />
</g>
<g style="fill:#000000; fill-opacity:0.0; 
stroke:#000000; stroke-width:39.3701; stroke-opacity:1; 
stroke-linecap:round; stroke-linejoin:round;">
</g>
<g style="fill:#000000; fill-opacity:0.0; 
stroke:#000000; stroke-width:59.0551; stroke-opacity:1; 
stroke-linecap:round; stroke-linejoin:round;">
<path d="M69685 73821
L112205 73821
" />
</g>
<g style="fill:#000000; fill-opacity:0.0; 
stroke:#000000; stroke-width:39.3701; stroke-opacity:1; 
stroke-linecap:round; stroke-linejoin:round;">
</g>
<g style="fill:#000000; fill-opacity:0.0; 
stroke:#000000; stroke-width:157.48; stroke-opacity:1; 
stroke-linecap:round; stroke-linejoin:round;">
<path d="M70257 74099
L70707 74099
" />
<path d="M70384 74886
L70482 74099
" />
<path d="M70871 74886
L70937 74361
" />
<path d="M70970 74099
L70927 74136
L70960 74174
L71002 74136
L70970 74099
L70960 74174
" />
<path d="M71199 74361
L71499 74361
" />
<path d="M71345 74099
L71260 74774
L71288 74849
L71359 74886
L71434 74886
" />
<path d="M71809 74886
L71738 74849
L71710 74774
L71795 74099
" />
<path d="M72413 74849
L72334 74886
L72184 74886
L72113 74849
L72085 74774
L72123 74474
L72169 74399
L72249 74361
L72399 74361
L72469 74399
L72498 74474
L72488 74549
L72104 74624
" />
<path d="M72793 74811
L72826 74849
L72783 74886
L72751 74849
L72793 74811
L72783 74886
" />
<path d="M72844 74399
L72877 74436
L72835 74474
L72802 74436
L72844 74399
L72835 74474
" />
</g>
<g style="fill:#000000; fill-opacity:0.0; 
stroke:#000000; stroke-width:39.3701; stroke-opacity:1; 
stroke-linecap:round; stroke-linejoin:round;">
</g>
<g style="fill:#000000; fill-opacity:0.0; 
stroke:#000000; stroke-width:59.0551; stroke-opacity:1; 
stroke-linecap:round; stroke-linejoin:round;">
<path d="M70417 73070
L70220 73070
" />
<path d="M70220 73380
L70220 72789
L70501 72789
" />
<path d="M70726 73380
L70726 72986
" />
<path d="M70726 72789
L70698 72817
L70726 72845
L70754 72817
L70726 72789
L70726 72845
" />
<path d="M71091 73380
L71035 73352
L71007 73295
L71007 72789
" />
<path d="M71541 73352
L71485 73380
L71373 73380
L71316 73352
L71288 73295
L71288 73070
L71316 73014
L71373 72986
L71485 72986
L71541 73014
L71570 73070
L71570 73127
L71288 73183
" />
<path d="M71823 73323
L71851 73352
L71823 73380
L71795 73352
L71823 73323
L71823 73380
" />
<path d="M71823 73014
L71851 73042
L71823 73070
L71795 73042
L71823 73014
L71823 73070
" />
<path d="M72807 73352
L72751 73380
L72638 73380
L72582 73352
L72554 73323
L72526 73267
L72526 73099
L72554 73042
L72582 73014
L72638 72986
L72751 72986
L72807 73014
" />
<path d="M73144 73380
L73088 73352
L73060 73323
L73032 73267
L73032 73099
L73060 73042
L73088 73014
L73144 72986
L73229 72986
L73285 73014
L73313 73042
L73341 73099
L73341 73267
L73313 73323
L73285 73352
L73229 73380
L73144 73380
" />
<path d="M73594 72986
L73594 73380
" />
<path d="M73594 73042
L73622 73014
L73679 72986
L73763 72986
L73819 73014
L73847 73070
L73847 73380
" />
<path d="M74044 72986
L74269 72986
" />
<path d="M74129 72789
L74129 73295
L74157 73352
L74213 73380
L74269 73380
" />
<path d="M74466 73380
L74466 72986
" />
<path d="M74466 73099
L74494 73042
L74522 73014
L74579 72986
L74635 72986
" />
<path d="M74916 73380
L74860 73352
L74832 73323
L74804 73267
L74804 73099
L74832 73042
L74860 73014
L74916 72986
L75000 72986
L75057 73014
L75085 73042
L75113 73099
L75113 73267
L75085 73323
L75057 73352
L75000 73380
L74916 73380
" />
<path d="M75450 73380
L75394 73352
L75366 73295
L75366 72789
" />
<path d="M75760 73380
L75703 73352
L75675 73295
L75675 72789
" />
<path d="M76210 73352
L76153 73380
L76041 73380
L75985 73352
L75956 73295
L75956 73070
L75985 73014
L76041 72986
L76153 72986
L76210 73014
L76238 73070
L76238 73127
L75956 73183
" />
<path d="M76491 73380
L76491 72986
" />
<path d="M76491 73099
L76519 73042
L76547 73014
L76603 72986
L76660 72986
" />
<path d="M76716 73436
L77166 73436
" />
<path d="M77559 73352
L77503 73380
L77391 73380
L77334 73352
L77306 73323
L77278 73267
L77278 73099
L77306 73042
L77334 73014
L77391 72986
L77503 72986
L77559 73014
" />
<path d="M77813 73380
L77813 72986
" />
<path d="M77813 72789
L77784 72817
L77813 72845
L77841 72817
L77813 72789
L77813 72845
" />
<path d="M78094 73380
L78094 72986
" />
<path d="M78094 73099
L78122 73042
L78150 73014
L78206 72986
L78262 72986
" />
<path d="M78712 73352
L78656 73380
L78544 73380
L78487 73352
L78459 73323
L78431 73267
L78431 73099
L78459 73042
L78487 73014
L78544 72986
L78656 72986
L78712 73014
" />
<path d="M79219 72986
L79219 73380
" />
<path d="M78965 72986
L78965 73295
L78994 73352
L79050 73380
L79134 73380
L79190 73352
L79219 73323
" />
<path d="M79500 73380
L79500 72986
" />
<path d="M79500 72789
L79472 72817
L79500 72845
L79528 72817
L79500 72789
L79500 72845
" />
<path d="M79697 72986
L79922 72986
" />
<path d="M79781 72789
L79781 73295
L79809 73352
L79865 73380
L79922 73380
" />
<path d="M80118 73323
L80147 73352
L80118 73380
L80090 73352
L80118 73323
L80118 73380
" />
<path d="M80400 73380
L80400 72789
" />
<path d="M80456 73155
L80625 73380
" />
<path d="M80625 72986
L80400 73211
" />
<path d="M80878 73380
L80878 72986
" />
<path d="M80878 72789
L80850 72817
L80878 72845
L80906 72817
L80878 72789
L80878 72845
" />
<path d="M81412 73352
L81356 73380
L81243 73380
L81187 73352
L81159 73323
L81131 73267
L81131 73099
L81159 73042
L81187 73014
L81243 72986
L81356 72986
L81412 73014
" />
<path d="M81918 73380
L81918 73070
L81890 73014
L81834 72986
L81721 72986
L81665 73014
" />
<path d="M81918 73352
L81862 73380
L81721 73380
L81665 73352
L81637 73295
L81637 73239
L81665 73183
L81721 73155
L81862 73155
L81918 73127
" />
<path d="M82453 73380
L82453 72789
" />
<path d="M82453 73352
L82396 73380
L82284 73380
L82228 73352
L82199 73323
L82171 73267
L82171 73099
L82199 73042
L82228 73014
L82284 72986
L82396 72986
L82453 73014
" />
<path d="M82593 73436
L83043 73436
" />
<path d="M83184 72986
L83184 73577
" />
<path d="M83184 73014
L83240 72986
L83352 72986
L83409 73014
L83437 73042
L83465 73099
L83465 73267
L83437 73323
L83409 73352
L83352 73380
L83240 73380
L83184 73352
" />
<path d="M83971 73352
L83915 73380
L83802 73380
L83746 73352
L83718 73323
L83690 73267
L83690 73099
L83718 73042
L83746 73014
L83802 72986
L83915 72986
L83971 73014
" />
<path d="M84224 73380
L84224 72789
" />
<path d="M84224 73014
L84280 72986
L84393 72986
L84449 73014
L84477 73042
L84505 73099
L84505 73267
L84477 73323
L84449 73352
L84393 73380
L84280 73380
L84224 73352
" />
</g>
<g style="fill:#000000; fill-opacity:0.0; 
stroke:#000000; stroke-width:39.3701; stroke-opacity:1; 
stroke-linecap:round; stroke-linejoin:round;">
</g>
<g style="fill:#000000; fill-opacity:0.0; 
stroke:#000000; stroke-width:59.0551; stroke-opacity:1; 
stroke-linecap:round; stroke-linejoin:round;">
<path d="M69685 71459
L112205 71459
" />
</g>
<g style="fill:#000000; fill-opacity:0.0; 
stroke:#000000; stroke-width:39.3701; stroke-opacity:1; 
stroke-linecap:round; stroke-linejoin:round;">
</g>
<g style="fill:#000000; fill-opacity:0.0; 
stroke:#000000; stroke-width:59.0551; stroke-opacity:1; 
stroke-linecap:round; stroke-linejoin:round;">
<path d="M70192 72289
L70276 72317
L70417 72317
L70473 72289
L70501 72260
L70529 72204
L70529 72148
L70501 72092
L70473 72064
L70417 72036
L70304 72007
L70248 71979
L70220 71951
L70192 71895
L70192 71839
L70220 71782
L70248 71754
L70304 71726
L70445 71726
L70529 71754
" />
<path d="M70782 72317
L70782 71726
" />
<path d="M71035 72317
L71035 72007
L71007 71951
L70951 71923
L70867 71923
L70810 71951
L70782 71979
" />
<path d="M71541 72289
L71485 72317
L71373 72317
L71316 72289
L71288 72232
L71288 72007
L71316 71951
L71373 71923
L71485 71923
L71541 71951
L71570 72007
L71570 72064
L71288 72120
" />
<path d="M72048 72289
L71991 72317
L71879 72317
L71823 72289
L71795 72232
L71795 72007
L71823 71951
L71879 71923
L71991 71923
L72048 71951
L72076 72007
L72076 72064
L71795 72120
" />
<path d="M72244 71923
L72469 71923
" />
<path d="M72329 71726
L72329 72232
L72357 72289
L72413 72317
L72469 72317
" />
<path d="M72666 72260
L72694 72289
L72666 72317
L72638 72289
L72666 72260
L72666 72317
" />
<path d="M72666 71951
L72694 71979
L72666 72007
L72638 71979
L72666 71951
L72666 72007
" />
</g>
<g style="fill:#000000; fill-opacity:0.0; 
stroke:#000000; stroke-width:39.3701; stroke-opacity:1; 
stroke-linecap:round; stroke-linejoin:round;">
</g>
<g style="fill:#000000; fill-opacity:0.0; 
stroke:#000000; stroke-width:59.0551; stroke-opacity:1; 
stroke-linecap:round; stroke-linejoin:round;">
<path d="M77559 75396
L77559 76577
" />
</g>
<g style="fill:#000000; fill-opacity:0.0; 
stroke:#000000; stroke-width:39.3701; stroke-opacity:1; 
stroke-linecap:round; stroke-linejoin:round;">
</g>
<g style="fill:#000000; fill-opacity:0.0; 
stroke:#000000; stroke-width:59.0551; stroke-opacity:1; 
stroke-linecap:round; stroke-linejoin:round;">
<path d="M102756 75396
L102756 77955
" />
</g>
<g style="fill:#008484; fill-opacity:0.0; 
stroke:#008484; stroke-width:59.0551; stroke-opacity:1; 
stroke-linecap:round; stroke-linejoin:round;">
</g>
<g style="fill:#008484; fill-opacity:0.0; 
stroke:#008484; stroke-width:78.7402; stroke-opacity:1; 
stroke-linecap:round; stroke-linejoin:round;">
<path d="M70000 30000
L70000 55400
" />
<path d="M64900 56000
L69400 56000
" />
<path d="M69400 56000
L70000 55400
" />
</g>
<g style="fill:#008484; fill-opacity:0.0; 
stroke:#008484; stroke-width:100; stroke-opacity:1; 
stroke-linecap:round; stroke-linejoin:round;">
<path d="M47683 43717
L48133 43717
L47812 43867
L48133 44017
L47683 44017
" />
<path d="M47983 44425
L47683 44425
" />
<path d="M47983 44232
L47748 44232
L47705 44253
L47683 44296
L47683 44360
L47705 44403
L47726 44425
" />
<path d="M47683 44703
L47705 44660
L47748 44639
L48133 44639
" />
<path d="M47983 44810
L47983 44982
" />
<path d="M48133 44875
L47748 44875
L47705 44896
L47683 44939
L47683 44982
" />
<path d="M47683 45132
L47983 45132
" />
<path d="M48133 45132
L48112 45110
L48091 45132
L48112 45153
L48133 45132
L48091 45132
" />
<path d="M47683 45346
L48133 45346
L47812 45496
L48133 45646
L47683 45646
" />
<path d="M47683 45925
L47705 45882
L47726 45860
L47769 45839
L47898 45839
L47941 45860
L47962 45882
L47983 45925
L47983 45989
L47962 46032
L47941 46053
L47898 46075
L47769 46075
L47726 46053
L47705 46032
L47683 45989
L47683 45925
" />
<path d="M47983 46203
L47983 46375
" />
<path d="M48133 46267
L47748 46267
L47705 46289
L47683 46332
L47683 46375
" />
<path d="M47683 46589
L47705 46546
L47726 46525
L47769 46503
L47898 46503
L47941 46525
L47962 46546
L47983 46589
L47983 46653
L47962 46696
L47941 46717
L47898 46739
L47769 46739
L47726 46717
L47705 46696
L47683 46653
L47683 46589
" />
<path d="M47726 47532
L47705 47510
L47683 47446
L47683 47403
L47705 47339
L47748 47296
L47791 47275
L47876 47253
L47941 47253
L48026 47275
L48069 47296
L48112 47339
L48133 47403
L48133 47446
L48112 47510
L48091 47532
" />
<path d="M47683 47789
L47705 47746
L47726 47725
L47769 47703
L47898 47703
L47941 47725
L47962 47746
L47983 47789
L47983 47853
L47962 47896
L47941 47917
L47898 47939
L47769 47939
L47726 47917
L47705 47896
L47683 47853
L47683 47789
" />
<path d="M47983 48132
L47683 48132
" />
<path d="M47941 48132
L47962 48153
L47983 48196
L47983 48260
L47962 48303
L47919 48325
L47683 48325
" />
<path d="M47983 48539
L47683 48539
" />
<path d="M47941 48539
L47962 48560
L47983 48603
L47983 48667
L47962 48710
L47919 48732
L47683 48732
" />
<path d="M47705 49117
L47683 49075
L47683 48989
L47705 48946
L47748 48925
L47919 48925
L47962 48946
L47983 48989
L47983 49075
L47962 49117
L47919 49139
L47876 49139
L47833 48925
" />
<path d="M47705 49525
L47683 49482
L47683 49396
L47705 49353
L47726 49332
L47769 49310
L47898 49310
L47941 49332
L47962 49353
L47983 49396
L47983 49482
L47962 49525
" />
<path d="M47983 49653
L47983 49825
" />
<path d="M48133 49717
L47748 49717
L47705 49739
L47683 49782
L47683 49825
" />
<path d="M47683 50039
L47705 49996
L47726 49975
L47769 49953
L47898 49953
L47941 49975
L47962 49996
L47983 50039
L47983 50103
L47962 50146
L47941 50167
L47898 50189
L47769 50189
L47726 50167
L47705 50146
L47683 50103
L47683 50039
" />
<path d="M47683 50382
L47983 50382
" />
<path d="M47898 50382
L47941 50403
L47962 50425
L47983 50467
L47983 50510
" />
<path d="M47683 51003
L47983 51003
" />
<path d="M47898 51003
L47941 51025
L47962 51046
L47983 51089
L47983 51132
" />
<path d="M47705 51453
L47683 51410
L47683 51325
L47705 51282
L47748 51260
L47919 51260
L47962 51282
L47983 51325
L47983 51410
L47962 51453
L47919 51475
L47876 51475
L47833 51260
" />
<path d="M47983 51625
L47683 51732
L47983 51839
" />
<path d="M47726 52010
L47705 52032
L47683 52010
L47705 51989
L47726 52010
L47683 52010
" />
<path d="M47683 52803
L47683 52546
" />
<path d="M47683 52675
L48133 52675
L48069 52632
L48026 52589
L48005 52546
" />
<path d="M47144 43803
L47144 43953
" />
<path d="M46908 44017
L46908 43803
L47358 43803
L47358 44017
" />
<path d="M46908 44210
L47358 44210
L46908 44467
L47358 44467
" />
<path d="M46908 44682
L47358 44682
L47358 44853
L47337 44896
L47316 44917
L47273 44939
L47208 44939
L47166 44917
L47144 44896
L47123 44853
L47123 44682
" />
<path d="M46908 45132
L47358 45132
" />
<path d="M47144 45132
L47144 45389
" />
<path d="M46908 45389
L47358 45389
" />
<path d="M47208 46139
L46908 46139
" />
<path d="M47380 46032
L47058 45925
L47058 46203
" />
<path d="M47358 46589
L47358 46375
L47144 46353
L47166 46375
L47187 46417
L47187 46525
L47166 46567
L47144 46589
L47101 46610
L46994 46610
L46951 46589
L46930 46567
L46908 46525
L46908 46417
L46930 46375
L46951 46353
" />
<path d="M46908 46825
L46908 46910
L46930 46953
L46951 46975
L47016 47017
L47101 47039
L47273 47039
L47316 47017
L47337 46996
L47358 46953
L47358 46867
L47337 46825
L47316 46803
L47273 46782
L47166 46782
L47123 46803
L47101 46825
L47080 46867
L47080 46953
L47101 46996
L47123 47017
L47166 47039
" />
<path d="M47080 47575
L47080 47917
" />
<path d="M46908 48475
L47358 48475
L47358 48646
L47337 48689
L47316 48710
L47273 48732
L47208 48732
L47166 48710
L47144 48689
L47123 48646
L47123 48475
" />
<path d="M46908 48925
L47208 48925
" />
<path d="M47123 48925
L47166 48946
L47187 48967
L47208 49010
L47208 49053
" />
<path d="M46908 49267
L46930 49225
L46951 49203
L46994 49182
L47123 49182
L47166 49203
L47187 49225
L47208 49267
L47208 49332
L47187 49375
L47166 49396
L47123 49417
L46994 49417
L46951 49396
L46930 49375
L46908 49332
L46908 49267
" />
<path d="M47208 49610
L46823 49610
L46780 49589
L46758 49546
L46758 49525
" />
<path d="M47358 49610
L47337 49589
L47316 49610
L47337 49632
L47358 49610
L47316 49610
" />
<path d="M46930 49996
L46908 49953
L46908 49867
L46930 49825
L46973 49803
L47144 49803
L47187 49825
L47208 49867
L47208 49953
L47187 49996
L47144 50017
L47101 50017
L47058 49803
" />
<path d="M46930 50403
L46908 50360
L46908 50275
L46930 50232
L46951 50210
L46994 50189
L47123 50189
L47166 50210
L47187 50232
L47208 50275
L47208 50360
L47187 50403
" />
<path d="M47208 50532
L47208 50703
" />
<path d="M47358 50596
L46973 50596
L46930 50617
L46908 50660
L46908 50703
" />
<path d="M46908 51432
L46908 51175
" />
<path d="M46908 51303
L47358 51303
L47294 51260
L47251 51217
L47230 51175
" />
<path d="M47166 51689
L47187 51646
L47208 51625
L47251 51603
L47273 51603
L47316 51625
L47337 51646
L47358 51689
L47358 51775
L47337 51817
L47316 51839
L47273 51860
L47251 51860
L47208 51839
L47187 51817
L47166 51775
L47166 51689
L47144 51646
L47123 51625
L47080 51603
L46994 51603
L46951 51625
L46930 51646
L46908 51689
L46908 51775
L46930 51817
L46951 51839
L46994 51860
L47080 51860
L47123 51839
L47144 51817
L47166 51775
" />
<path d="M46908 52289
L46908 52032
" />
<path d="M46908 52160
L47358 52160
L47294 52117
L47251 52074
L47230 52032
" />
<path d="M47358 52567
L47358 52610
L47337 52653
L47316 52674
L47273 52696
L47187 52717
L47080 52717
L46994 52696
L46951 52674
L46930 52653
L46908 52610
L46908 52567
L46930 52524
L46951 52503
L46994 52482
L47080 52460
L47187 52460
L47273 52482
L47316 52503
L47337 52524
L47358 52567
" />
</g>
<g style="fill:#008484; fill-opacity:0.0; 
stroke:#008484; stroke-width:78.7402; stroke-opacity:1; 
stroke-linecap:round; stroke-linejoin:round;">
<path d="M49000 30000
L49000 56000
" />
<path d="M70000 30000
L49000 30000
" />
<path d="M63900 57000
L64900 56000
" />
<path d="M51000 57000
L63900 57000
" />
<path d="M50000 56000
L51000 57000
" />
<path d="M49000 56000
L50000 56000
" />
</g>
<g style="fill:#008484; fill-opacity:0.0; 
stroke:#008484; stroke-width:47.2441; stroke-opacity:1; 
stroke-linecap:round; stroke-linejoin:round;">
<path d="M52893 24659
L66106 24659
" />
<path d="M66106 24659
L66106 28340
" />
<path d="M66106 28340
L52893 28340
" />
<path d="M52893 28340
L52893 24659
" />
<path d="M52795 28438
L53795 28438
" />
<path d="M52795 28438
L52795 27438
" />
<path d="M49476 43500
L49476 48523
" />
<path d="M49476 48523
L50523 48523
" />
<path d="M50523 48523
L50523 43500
" />
<path d="M50523 43500
L49476 43500
" />
<path d="M49476 43000
L49476 42476
" />
<path d="M49476 42476
L50000 42476
" />
<path d="M49476 50500
L49476 55523
" />
<path d="M49476 55523
L50523 55523
" />
<path d="M50523 55523
L50523 50500
" />
<path d="M50523 50500
L49476 50500
" />
<path d="M49476 50000
L49476 49476
" />
<path d="M49476 49476
L50000 49476
" />
<path d="M68476 39900
L68476 46923
" />
<path d="M68476 46923
L69523 46923
" />
<path d="M69523 46923
L69523 39900
" />
<path d="M69523 39900
L68476 39900
" />
<path d="M68476 39400
L68476 38876
" />
<path d="M68476 38876
L69000 38876
" />
<path d="M68476 48500
L68476 55523
" />
<path d="M68476 55523
L69523 55523
" />
<path d="M69523 55523
L69523 48500
" />
<path d="M69523 48500
L68476 48500
" />
<path d="M68476 48000
L68476 47476
" />
<path d="M68476 47476
L69000 47476
" />
<circle cx="48000" cy="24500" r="900" /> 
<circle cx="47500" cy="55500" r="900" /> 
<circle cx="71500" cy="55500" r="900" /> 
<circle cx="71000" cy="24500" r="900" /> 
</g>
<g style="fill:#000000; fill-opacity:0.0; 
stroke:#000000; stroke-width:47.2441; stroke-opacity:1; 
stroke-linecap:round; stroke-linejoin:round;">
</g>
<g style="fill:#C2C2C2; fill-opacity:0.0; 
stroke:#C2C2C2; stroke-width:47.2441; stroke-opacity:1; 
stroke-linecap:round; stroke-linejoin:round;">
</g>
<g style="fill:#C2C2C2; fill-opacity:0.0; 
stroke:#C2C2C2; stroke-width:118.11; stroke-opacity:1; 
stroke-linecap:round; stroke-linejoin:round;">
<path d="M106168 76267
L105831 76267
" />
<path d="M106000 76267
L106000 75676
L105943 75760
L105887 75817
L105831 75845
" />
<path d="M81420 76267
L81420 75676
L81758 76267
L81758 75676
" />
<path d="M82123 76267
L82067 76239
L82039 76210
L82011 76154
L82011 75985
L82039 75929
L82067 75901
L82123 75873
L82208 75873
L82264 75901
L82292 75929
L82320 75985
L82320 76154
L82292 76210
L82264 76239
L82208 76267
L82123 76267
" />
<path d="M82517 75873
L82658 76267
L82798 75873
" />
<path d="M83023 76210
L83051 76239
L83023 76267
L82995 76239
L83023 76210
L83023 76267
" />
<path d="M83726 75732
L83754 75704
L83811 75676
L83951 75676
L84007 75704
L84035 75732
L84064 75789
L84064 75845
L84035 75929
L83698 76267
L84064 76267
" />
<path d="M84598 75676
L84317 75676
L84289 75957
L84317 75929
L84373 75901
L84514 75901
L84570 75929
L84598 75957
L84626 76014
L84626 76154
L84598 76210
L84570 76239
L84514 76267
L84373 76267
L84317 76239
L84289 76210
" />
<path d="M84907 76239
L84907 76267
L84879 76323
L84851 76351
" />
<path d="M85582 75732
L85610 75704
L85667 75676
L85807 75676
L85863 75704
L85892 75732
L85920 75789
L85920 75845
L85892 75929
L85554 76267
L85920 76267
" />
<path d="M86285 75676
L86341 75676
L86398 75704
L86426 75732
L86454 75789
L86482 75901
L86482 76042
L86454 76154
L86426 76210
L86398 76239
L86341 76267
L86285 76267
L86229 76239
L86201 76210
L86173 76154
L86145 76042
L86145 75901
L86173 75789
L86201 75732
L86229 75704
L86285 75676
" />
<path d="M87044 76267
L86707 76267
" />
<path d="M86876 76267
L86876 75676
L86820 75760
L86763 75817
L86707 75845
" />
<path d="M87241 75676
L87635 75676
L87382 76267
" />
<path d="M73524 74767
L73524 74176
L73721 74598
L73917 74176
L73917 74767
" />
<path d="M74452 74373
L74452 74767
" />
<path d="M74199 74373
L74199 74682
L74227 74739
L74283 74767
L74367 74767
L74424 74739
L74452 74710
" />
<path d="M74817 74767
L74761 74739
L74733 74682
L74733 74176
" />
<path d="M74958 74373
L75183 74373
" />
<path d="M75042 74176
L75042 74682
L75070 74739
L75127 74767
L75183 74767
" />
<path d="M75380 74767
L75380 74373
" />
<path d="M75380 74176
L75352 74204
L75380 74232
L75408 74204
L75380 74176
L75380 74232
" />
<path d="M75661 74767
L75661 74373
" />
<path d="M75661 74429
L75689 74401
L75745 74373
L75830 74373
L75886 74401
L75914 74457
L75914 74767
" />
<path d="M75914 74457
L75942 74401
L75998 74373
L76083 74373
L76139 74401
L76167 74457
L76167 74767
" />
<path d="M76533 74767
L76476 74739
L76448 74710
L76420 74654
L76420 74485
L76448 74429
L76476 74401
L76533 74373
L76617 74373
L76673 74401
L76701 74429
L76730 74485
L76730 74654
L76701 74710
L76673 74739
L76617 74767
L76533 74767
" />
<path d="M76898 74373
L77123 74373
" />
<path d="M76983 74176
L76983 74682
L77011 74739
L77067 74767
L77123 74767
" />
<path d="M77404 74767
L77348 74739
L77320 74710
L77292 74654
L77292 74485
L77320 74429
L77348 74401
L77404 74373
L77489 74373
L77545 74401
L77573 74429
L77601 74485
L77601 74654
L77573 74710
L77545 74739
L77489 74767
L77404 74767
" />
<path d="M78642 74710
L78614 74739
L78529 74767
L78473 74767
L78389 74739
L78332 74682
L78304 74626
L78276 74514
L78276 74429
L78304 74317
L78332 74260
L78389 74204
L78473 74176
L78529 74176
L78614 74204
L78642 74232
" />
<path d="M78979 74767
L78923 74739
L78895 74710
L78867 74654
L78867 74485
L78895 74429
L78923 74401
L78979 74373
L79064 74373
L79120 74401
L79148 74429
L79176 74485
L79176 74654
L79148 74710
L79120 74739
L79064 74767
L78979 74767
" />
<path d="M79429 74373
L79429 74767
" />
<path d="M79429 74429
L79457 74401
L79514 74373
L79598 74373
L79654 74401
L79682 74457
L79682 74767
" />
<path d="M79964 74373
L79964 74767
" />
<path d="M79964 74429
L79992 74401
L80048 74373
L80132 74373
L80188 74401
L80217 74457
L80217 74767
" />
<path d="M80723 74739
L80667 74767
L80554 74767
L80498 74739
L80470 74682
L80470 74457
L80498 74401
L80554 74373
L80667 74373
L80723 74401
L80751 74457
L80751 74514
L80470 74570
" />
<path d="M81257 74739
L81201 74767
L81088 74767
L81032 74739
L81004 74710
L80976 74654
L80976 74485
L81004 74429
L81032 74401
L81088 74373
L81201 74373
L81257 74401
" />
<path d="M81426 74373
L81651 74373
" />
<path d="M81510 74176
L81510 74682
L81538 74739
L81595 74767
L81651 74767
" />
<path d="M81932 74767
L81876 74739
L81848 74710
L81820 74654
L81820 74485
L81848 74429
L81876 74401
L81932 74373
L82016 74373
L82073 74401
L82101 74429
L82129 74485
L82129 74654
L82101 74710
L82073 74739
L82016 74767
L81932 74767
" />
<path d="M82382 74767
L82382 74373
" />
<path d="M82382 74485
L82410 74429
L82438 74401
L82494 74373
L82551 74373
" />
<path d="M83394 74457
L83479 74485
L83507 74514
L83535 74570
L83535 74654
L83507 74710
L83479 74739
L83422 74767
L83197 74767
L83197 74176
L83394 74176
L83451 74204
L83479 74232
L83507 74289
L83507 74345
L83479 74401
L83451 74429
L83394 74457
L83197 74457
" />
<path d="M83872 74767
L83816 74739
L83788 74710
L83760 74654
L83760 74485
L83788 74429
L83816 74401
L83872 74373
L83957 74373
L84013 74401
L84041 74429
L84069 74485
L84069 74654
L84041 74710
L84013 74739
L83957 74767
L83872 74767
" />
<path d="M84575 74767
L84575 74457
L84547 74401
L84491 74373
L84379 74373
L84322 74401
" />
<path d="M84575 74739
L84519 74767
L84379 74767
L84322 74739
L84294 74682
L84294 74626
L84322 74570
L84379 74542
L84519 74542
L84575 74514
" />
<path d="M84857 74767
L84857 74373
" />
<path d="M84857 74485
L84885 74429
L84913 74401
L84969 74373
L85025 74373
" />
<path d="M85475 74767
L85475 74176
" />
<path d="M85475 74739
L85419 74767
L85307 74767
L85250 74739
L85222 74710
L85194 74654
L85194 74485
L85222 74429
L85250 74401
L85307 74373
L85419 74373
L85475 74401
" />
<path d="M69573 60676
L69629 60676
L69686 60704
L69714 60732
L69742 60789
L69770 60901
L69770 61042
L69742 61154
L69714 61210
L69686 61239
L69629 61267
L69573 61267
L69517 61239
L69489 61210
L69461 61154
L69433 61042
L69433 60901
L69461 60789
L69489 60732
L69517 60704
L69573 60676
" />
<path d="M70023 61210
L70051 61239
L70023 61267
L69995 61239
L70023 61210
L70023 61267
" />
<path d="M70276 60732
L70304 60704
L70361 60676
L70501 60676
L70557 60704
L70586 60732
L70614 60789
L70614 60845
L70586 60929
L70248 61267
L70614 61267
" />
<path d="M70979 60676
L71035 60676
L71092 60704
L71120 60732
L71148 60789
L71176 60901
L71176 61042
L71148 61154
L71120 61210
L71092 61239
L71035 61267
L70979 61267
L70923 61239
L70895 61210
L70867 61154
L70839 61042
L70839 60901
L70867 60789
L70895 60732
L70923 60704
L70979 60676
" />
<path d="M71542 60676
L71598 60676
L71654 60704
L71682 60732
L71710 60789
L71739 60901
L71739 61042
L71710 61154
L71682 61210
L71654 61239
L71598 61267
L71542 61267
L71485 61239
L71457 61210
L71429 61154
L71401 61042
L71401 60901
L71429 60789
L71457 60732
L71485 60704
L71542 60676
" />
<path d="M72104 60676
L72160 60676
L72217 60704
L72245 60732
L72273 60789
L72301 60901
L72301 61042
L72273 61154
L72245 61210
L72217 61239
L72160 61267
L72104 61267
L72048 61239
L72020 61210
L71992 61154
L71964 61042
L71964 60901
L71992 60789
L72020 60732
L72048 60704
L72104 60676
" />
<path d="M73004 61267
L73004 60873
" />
<path d="M73004 60676
L72976 60704
L73004 60732
L73032 60704
L73004 60676
L73004 60732
" />
<path d="M73285 60873
L73285 61267
" />
<path d="M73285 60929
L73313 60901
L73370 60873
L73454 60873
L73510 60901
L73538 60957
L73538 61267
" />
<path d="M70500 59500
L72500 59500
" />
<path d="M70500 55500
L70500 60562
" />
<path d="M72500 55500
L72500 60562
" />
<path d="M72500 59500
L72056 59730
" />
<path d="M72500 59500
L72056 59269
" />
<path d="M70500 59500
L70943 59730
" />
<path d="M70500 59500
L70943 59269
" />
<path d="M67176 26926
L67176 26870
L67204 26813
L67232 26785
L67289 26757
L67401 26729
L67542 26729
L67654 26757
L67710 26785
L67739 26813
L67767 26870
L67767 26926
L67739 26982
L67710 27010
L67654 27038
L67542 27066
L67401 27066
L67289 27038
L67232 27010
L67204 26982
L67176 26926
" />
<path d="M67710 26476
L67739 26448
L67767 26476
L67739 26504
L67710 26476
L67767 26476
" />
<path d="M67373 25942
L67767 25942
" />
<path d="M67148 26082
L67570 26223
L67570 25857
" />
<path d="M67176 25351
L67176 25632
L67457 25660
L67429 25632
L67401 25576
L67401 25435
L67429 25379
L67457 25351
L67514 25323
L67654 25323
L67710 25351
L67739 25379
L67767 25435
L67767 25576
L67739 25632
L67710 25660
" />
<path d="M67176 24957
L67176 24901
L67204 24845
L67232 24817
L67289 24789
L67401 24760
L67542 24760
L67654 24789
L67710 24817
L67739 24845
L67767 24901
L67767 24957
L67739 25014
L67710 25042
L67654 25070
L67542 25098
L67401 25098
L67289 25070
L67232 25042
L67204 25014
L67176 24957
" />
<path d="M67176 24395
L67176 24339
L67204 24282
L67232 24254
L67289 24226
L67401 24198
L67542 24198
L67654 24226
L67710 24254
L67739 24282
L67767 24339
L67767 24395
L67739 24451
L67710 24479
L67654 24507
L67542 24535
L67401 24535
L67289 24507
L67232 24479
L67204 24451
L67176 24395
" />
<path d="M67767 23495
L67373 23495
" />
<path d="M67176 23495
L67204 23523
L67232 23495
L67204 23467
L67176 23495
L67232 23495
" />
<path d="M67373 23214
L67767 23214
" />
<path d="M67429 23214
L67401 23186
L67373 23129
L67373 23045
L67401 22989
L67457 22961
L67767 22961
" />
<path d="M65500 27000
L65500 22500
" />
<path d="M64000 27000
L66562 27000
" />
<path d="M64000 22500
L66562 22500
" />
<path d="M65500 22500
L65730 22943
" />
<path d="M65500 22500
L65269 22943
" />
<path d="M65500 27000
L65730 26556
" />
<path d="M65500 27000
L65269 26556
" />
<path d="M76323 45573
L76323 45629
L76295 45686
L76267 45714
L76210 45742
L76098 45770
L75957 45770
L75845 45742
L75789 45714
L75760 45686
L75732 45629
L75732 45573
L75760 45517
L75789 45489
L75845 45461
L75957 45433
L76098 45433
L76210 45461
L76267 45489
L76295 45517
L76323 45573
" />
<path d="M75789 46023
L75760 46051
L75732 46023
L75760 45995
L75789 46023
L75732 46023
" />
<path d="M75732 46614
L75732 46276
" />
<path d="M75732 46445
L76323 46445
L76239 46389
L76182 46332
L76154 46276
" />
<path d="M76323 47148
L76323 46867
L76042 46839
L76070 46867
L76098 46923
L76098 47064
L76070 47120
L76042 47148
L75985 47176
L75845 47176
L75789 47148
L75760 47120
L75732 47064
L75732 46923
L75760 46867
L75789 46839
" />
<path d="M76323 47542
L76323 47598
L76295 47654
L76267 47682
L76210 47710
L76098 47739
L75957 47739
L75845 47710
L75789 47682
L75760 47654
L75732 47598
L75732 47542
L75760 47485
L75789 47457
L75845 47429
L75957 47401
L76098 47401
L76210 47429
L76267 47457
L76295 47485
L76323 47542
" />
<path d="M76323 48104
L76323 48160
L76295 48217
L76267 48245
L76210 48273
L76098 48301
L75957 48301
L75845 48273
L75789 48245
L75760 48217
L75732 48160
L75732 48104
L75760 48048
L75789 48020
L75845 47992
L75957 47964
L76098 47964
L76210 47992
L76267 48020
L76295 48048
L76323 48104
" />
<path d="M75732 49004
L76126 49004
" />
<path d="M76323 49004
L76295 48976
L76267 49004
L76295 49032
L76323 49004
L76267 49004
" />
<path d="M76126 49285
L75732 49285
" />
<path d="M76070 49285
L76098 49313
L76126 49370
L76126 49454
L76098 49510
L76042 49538
L75732 49538
" />
<path d="M74500 46500
L74500 48000
" />
<path d="M69000 46500
L75562 46500
" />
<path d="M69000 48000
L75562 48000
" />
<path d="M74500 48000
L74269 47556
" />
<path d="M74500 48000
L74730 47556
" />
<path d="M74500 46500
L74269 46943
" />
<path d="M74500 46500
L74730 46943
" />
<path d="M53823 54573
L53823 54629
L53795 54686
L53767 54714
L53710 54742
L53598 54770
L53457 54770
L53345 54742
L53289 54714
L53260 54686
L53232 54629
L53232 54573
L53260 54517
L53289 54489
L53345 54461
L53457 54433
L53598 54433
L53710 54461
L53767 54489
L53795 54517
L53823 54573
" />
<path d="M53289 55023
L53260 55051
L53232 55023
L53260 54995
L53289 55023
L53232 55023
" />
<path d="M53767 55276
L53795 55304
L53823 55361
L53823 55501
L53795 55557
L53767 55586
L53710 55614
L53654 55614
L53570 55586
L53232 55248
L53232 55614
" />
<path d="M53823 56148
L53823 55867
L53542 55839
L53570 55867
L53598 55923
L53598 56064
L53570 56120
L53542 56148
L53485 56176
L53345 56176
L53289 56148
L53260 56120
L53232 56064
L53232 55923
L53260 55867
L53289 55839
" />
<path d="M53823 56542
L53823 56598
L53795 56654
L53767 56682
L53710 56710
L53598 56739
L53457 56739
L53345 56710
L53289 56682
L53260 56654
L53232 56598
L53232 56542
L53260 56485
L53289 56457
L53345 56429
L53457 56401
L53598 56401
L53710 56429
L53767 56457
L53795 56485
L53823 56542
" />
<path d="M53823 57104
L53823 57160
L53795 57217
L53767 57245
L53710 57273
L53598 57301
L53457 57301
L53345 57273
L53289 57245
L53260 57217
L53232 57160
L53232 57104
L53260 57048
L53289 57020
L53345 56992
L53457 56964
L53598 56964
L53710 56992
L53767 57020
L53795 57048
L53823 57104
" />
<path d="M53232 58004
L53626 58004
" />
<path d="M53823 58004
L53795 57976
L53767 58004
L53795 58032
L53823 58004
L53767 58004
" />
<path d="M53626 58285
L53232 58285
" />
<path d="M53570 58285
L53598 58313
L53626 58370
L53626 58454
L53598 58510
L53542 58538
L53232 58538
" />
<path d="M52000 55000
L52000 57500
" />
<path d="M50000 55000
L53062 55000
" />
<path d="M50000 57500
L53062 57500
" />
<path d="M52000 57500
L51769 57056
" />
<path d="M52000 57500
L52230 57056
" />
<path d="M52000 55000
L51769 55443
" />
<path d="M52000 55000
L52230 55443
" />
<path d="M41573 48176
L41629 48176
L41686 48204
L41714 48232
L41742 48289
L41770 48401
L41770 48542
L41742 48654
L41714 48710
L41686 48739
L41629 48767
L41573 48767
L41517 48739
L41489 48710
L41461 48654
L41433 48542
L41433 48401
L41461 48289
L41489 48232
L41517 48204
L41573 48176
" />
<path d="M42023 48710
L42051 48739
L42023 48767
L41995 48739
L42023 48710
L42023 48767
" />
<path d="M42557 48373
L42557 48767
" />
<path d="M42417 48148
L42276 48570
L42642 48570
" />
<path d="M42979 48176
L43035 48176
L43092 48204
L43120 48232
L43148 48289
L43176 48401
L43176 48542
L43148 48654
L43120 48710
L43092 48739
L43035 48767
L42979 48767
L42923 48739
L42895 48710
L42867 48654
L42839 48542
L42839 48401
L42867 48289
L42895 48232
L42923 48204
L42979 48176
" />
<path d="M43542 48176
L43598 48176
L43654 48204
L43682 48232
L43710 48289
L43739 48401
L43739 48542
L43710 48654
L43682 48710
L43654 48739
L43598 48767
L43542 48767
L43485 48739
L43457 48710
L43429 48654
L43401 48542
L43401 48401
L43429 48289
L43457 48232
L43485 48204
L43542 48176
" />
<path d="M44104 48176
L44160 48176
L44217 48204
L44245 48232
L44273 48289
L44301 48401
L44301 48542
L44273 48654
L44245 48710
L44217 48739
L44160 48767
L44104 48767
L44048 48739
L44020 48710
L43992 48654
L43964 48542
L43964 48401
L43992 48289
L44020 48232
L44048 48204
L44104 48176
" />
<path d="M45004 48767
L45004 48373
" />
<path d="M45004 48176
L44976 48204
L45004 48232
L45032 48204
L45004 48176
L45004 48232
" />
<path d="M45285 48373
L45285 48767
" />
<path d="M45285 48429
L45313 48401
L45370 48373
L45454 48373
L45510 48401
L45538 48457
L45538 48767
" />
<path d="M50000 49000
L46000 49000
" />
<path d="M50000 50000
L50000 47937
" />
<path d="M46000 50000
L46000 47937
" />
<path d="M46000 49000
L46443 48769
" />
<path d="M46000 49000
L46443 49230
" />
<path d="M50000 49000
L49556 48769
" />
<path d="M50000 49000
L49556 49230
" />
<path d="M57433 16701
L57461 16673
L57517 16645
L57658 16645
L57714 16673
L57742 16701
L57770 16757
L57770 16813
L57742 16898
L57404 17235
L57770 17235
" />
<path d="M58023 17179
L58051 17207
L58023 17235
L57995 17207
L58023 17179
L58023 17235
" />
<path d="M58248 16645
L58642 16645
L58389 17235
" />
<path d="M58979 16645
L59035 16645
L59092 16673
L59120 16701
L59148 16757
L59176 16870
L59176 17010
L59148 17123
L59120 17179
L59092 17207
L59035 17235
L58979 17235
L58923 17207
L58895 17179
L58867 17123
L58839 17010
L58839 16870
L58867 16757
L58895 16701
L58923 16673
L58979 16645
" />
<path d="M59542 16645
L59598 16645
L59654 16673
L59682 16701
L59710 16757
L59739 16870
L59739 17010
L59710 17123
L59682 17179
L59654 17207
L59598 17235
L59542 17235
L59485 17207
L59457 17179
L59429 17123
L59401 17010
L59401 16870
L59429 16757
L59457 16701
L59485 16673
L59542 16645
" />
<path d="M60104 16645
L60160 16645
L60217 16673
L60245 16701
L60273 16757
L60301 16870
L60301 17010
L60273 17123
L60245 17179
L60217 17207
L60160 17235
L60104 17235
L60048 17207
L60020 17179
L59992 17123
L59964 17010
L59964 16870
L59992 16757
L60020 16701
L60048 16673
L60104 16645
" />
<path d="M61004 17235
L61004 16841
" />
<path d="M61004 16645
L60976 16673
L61004 16701
L61032 16673
L61004 16645
L61004 16701
" />
<path d="M61285 16841
L61285 17235
" />
<path d="M61285 16898
L61313 16870
L61370 16841
L61454 16841
L61510 16870
L61538 16926
L61538 17235
" />
<path d="M46000 17500
L73000 17500
" />
<path d="M46000 30500
L46000 16437
" />
<path d="M73000 30500
L73000 16437
" />
<path d="M73000 17500
L72556 17730
" />
<path d="M73000 17500
L72556 17269
" />
<path d="M46000 17500
L46443 17730
" />
<path d="M46000 17500
L46443 17269
" />
<path d="M80854 37904
L80854 38270
L80629 38073
L80629 38158
L80601 38214
L80573 38242
L80517 38270
L80376 38270
L80320 38242
L80292 38214
L80264 38158
L80264 37989
L80292 37933
L80320 37904
" />
<path d="M80320 38523
L80292 38551
L80264 38523
L80292 38495
L80320 38523
L80264 38523
" />
<path d="M80854 39086
L80854 38804
L80573 38776
L80601 38804
L80629 38861
L80629 39001
L80601 39057
L80573 39086
L80517 39114
L80376 39114
L80320 39086
L80292 39057
L80264 39001
L80264 38861
L80292 38804
L80320 38776
" />
<path d="M80854 39479
L80854 39535
L80826 39592
L80798 39620
L80742 39648
L80629 39676
L80489 39676
L80376 39648
L80320 39620
L80292 39592
L80264 39535
L80264 39479
L80292 39423
L80320 39395
L80376 39367
L80489 39339
L80629 39339
L80742 39367
L80798 39395
L80826 39423
L80854 39479
" />
<path d="M80854 40042
L80854 40098
L80826 40154
L80798 40182
L80742 40210
L80629 40239
L80489 40239
L80376 40210
L80320 40182
L80292 40154
L80264 40098
L80264 40042
L80292 39985
L80320 39957
L80376 39929
L80489 39901
L80629 39901
L80742 39929
L80798 39957
L80826 39985
L80854 40042
" />
<path d="M80854 40604
L80854 40660
L80826 40717
L80798 40745
L80742 40773
L80629 40801
L80489 40801
L80376 40773
L80320 40745
L80292 40717
L80264 40660
L80264 40604
L80292 40548
L80320 40520
L80376 40492
L80489 40464
L80629 40464
L80742 40492
L80798 40520
L80826 40548
L80854 40604
" />
<path d="M80264 41504
L80658 41504
" />
<path d="M80854 41504
L80826 41476
L80798 41504
L80826 41532
L80854 41504
L80798 41504
" />
<path d="M80658 41785
L80264 41785
" />
<path d="M80601 41785
L80629 41813
L80658 41870
L80658 41954
L80629 42010
L80573 42038
L80264 42038
" />
<path d="M80000 22500
L80000 57500
" />
<path d="M70000 22500
L81062 22500
" />
<path d="M70000 57500
L81062 57500
" />
<path d="M80000 57500
L79769 57056
" />
<path d="M80000 57500
L80230 57056
" />
<path d="M80000 22500
L79769 22943
" />
<path d="M80000 22500
L80230 22943
" />
<path d="M42823 55573
L42823 55629
L42795 55686
L42767 55714
L42710 55742
L42598 55770
L42457 55770
L42345 55742
L42289 55714
L42260 55686
L42232 55629
L42232 55573
L42260 55517
L42289 55489
L42345 55461
L42457 55433
L42598 55433
L42710 55461
L42767 55489
L42795 55517
L42823 55573
" />
<path d="M42289 56023
L42260 56051
L42232 56023
L42260 55995
L42289 56023
L42232 56023
" />
<path d="M42767 56276
L42795 56304
L42823 56361
L42823 56501
L42795 56557
L42767 56586
L42710 56614
L42654 56614
L42570 56586
L42232 56248
L42232 56614
" />
<path d="M42823 56979
L42823 57035
L42795 57092
L42767 57120
L42710 57148
L42598 57176
L42457 57176
L42345 57148
L42289 57120
L42260 57092
L42232 57035
L42232 56979
L42260 56923
L42289 56895
L42345 56867
L42457 56839
L42598 56839
L42710 56867
L42767 56895
L42795 56923
L42823 56979
" />
<path d="M42823 57542
L42823 57598
L42795 57654
L42767 57682
L42710 57710
L42598 57739
L42457 57739
L42345 57710
L42289 57682
L42260 57654
L42232 57598
L42232 57542
L42260 57485
L42289 57457
L42345 57429
L42457 57401
L42598 57401
L42710 57429
L42767 57457
L42795 57485
L42823 57542
" />
<path d="M42823 58104
L42823 58160
L42795 58217
L42767 58245
L42710 58273
L42598 58301
L42457 58301
L42345 58273
L42289 58245
L42260 58217
L42232 58160
L42232 58104
L42260 58048
L42289 58020
L42345 57992
L42457 57964
L42598 57964
L42710 57992
L42767 58020
L42795 58048
L42823 58104
" />
<path d="M42232 59004
L42626 59004
" />
<path d="M42823 59004
L42795 58976
L42767 59004
L42795 59032
L42823 59004
L42767 59004
" />
<path d="M42626 59285
L42232 59285
" />
<path d="M42570 59285
L42598 59313
L42626 59370
L42626 59454
L42598 59510
L42542 59538
L42232 59538
" />
<path d="M44500 55500
L44500 57500
" />
<path d="M47500 55500
L43437 55500
" />
<path d="M47500 57500
L43437 57500
" />
<path d="M44500 57500
L44269 57056
" />
<path d="M44500 57500
L44730 57056
" />
<path d="M44500 55500
L44269 55943
" />
<path d="M44500 55500
L44730 55943
" />
<path d="M41573 52176
L41629 52176
L41686 52204
L41714 52232
L41742 52289
L41770 52401
L41770 52542
L41742 52654
L41714 52710
L41686 52739
L41629 52767
L41573 52767
L41517 52739
L41489 52710
L41461 52654
L41433 52542
L41433 52401
L41461 52289
L41489 52232
L41517 52204
L41573 52176
" />
<path d="M42023 52710
L42051 52739
L42023 52767
L41995 52739
L42023 52710
L42023 52767
" />
<path d="M42614 52767
L42276 52767
" />
<path d="M42445 52767
L42445 52176
L42389 52260
L42332 52317
L42276 52345
" />
<path d="M43148 52176
L42867 52176
L42839 52457
L42867 52429
L42923 52401
L43064 52401
L43120 52429
L43148 52457
L43176 52514
L43176 52654
L43148 52710
L43120 52739
L43064 52767
L42923 52767
L42867 52739
L42839 52710
" />
<path d="M43542 52176
L43598 52176
L43654 52204
L43682 52232
L43710 52289
L43739 52401
L43739 52542
L43710 52654
L43682 52710
L43654 52739
L43598 52767
L43542 52767
L43485 52739
L43457 52710
L43429 52654
L43401 52542
L43401 52401
L43429 52289
L43457 52232
L43485 52204
L43542 52176
" />
<path d="M44104 52176
L44160 52176
L44217 52204
L44245 52232
L44273 52289
L44301 52401
L44301 52542
L44273 52654
L44245 52710
L44217 52739
L44160 52767
L44104 52767
L44048 52739
L44020 52710
L43992 52654
L43964 52542
L43964 52401
L43992 52289
L44020 52232
L44048 52204
L44104 52176
" />
<path d="M45004 52767
L45004 52373
" />
<path d="M45004 52176
L44976 52204
L45004 52232
L45032 52204
L45004 52176
L45004 52232
" />
<path d="M45285 52373
L45285 52767
" />
<path d="M45285 52429
L45313 52401
L45370 52373
L45454 52373
L45510 52401
L45538 52457
L45538 52767
" />
<path d="M47500 54500
L46000 54500
" />
<path d="M47500 55500
L47500 53437
" />
<path d="M46000 55500
L46000 53437
" />
<path d="M46000 54500
L46443 54269
" />
<path d="M46000 54500
L46443 54730
" />
<path d="M47500 54500
L47056 54269
" />
<path d="M47500 54500
L47056 54730
" />
<path d="M48573 27208
L48629 27208
L48686 27236
L48714 27264
L48742 27320
L48770 27433
L48770 27573
L48742 27686
L48714 27742
L48686 27770
L48629 27798
L48573 27798
L48517 27770
L48489 27742
L48461 27686
L48433 27573
L48433 27433
L48461 27320
L48489 27264
L48517 27236
L48573 27208
" />
<path d="M49023 27742
L49051 27770
L49023 27798
L48995 27770
L49023 27742
L49023 27798
" />
<path d="M49332 27798
L49445 27798
L49501 27770
L49529 27742
L49586 27658
L49614 27545
L49614 27320
L49586 27264
L49557 27236
L49501 27208
L49389 27208
L49332 27236
L49304 27264
L49276 27320
L49276 27461
L49304 27517
L49332 27545
L49389 27573
L49501 27573
L49557 27545
L49586 27517
L49614 27461
" />
<path d="M49979 27208
L50035 27208
L50092 27236
L50120 27264
L50148 27320
L50176 27433
L50176 27573
L50148 27686
L50120 27742
L50092 27770
L50035 27798
L49979 27798
L49923 27770
L49895 27742
L49867 27686
L49839 27573
L49839 27433
L49867 27320
L49895 27264
L49923 27236
L49979 27208
" />
<path d="M50542 27208
L50598 27208
L50654 27236
L50682 27264
L50710 27320
L50739 27433
L50739 27573
L50710 27686
L50682 27742
L50654 27770
L50598 27798
L50542 27798
L50485 27770
L50457 27742
L50429 27686
L50401 27573
L50401 27433
L50429 27320
L50457 27264
L50485 27236
L50542 27208
" />
<path d="M51104 27208
L51160 27208
L51217 27236
L51245 27264
L51273 27320
L51301 27433
L51301 27573
L51273 27686
L51245 27742
L51217 27770
L51160 27798
L51104 27798
L51048 27770
L51020 27742
L50992 27686
L50964 27573
L50964 27433
L50992 27320
L51020 27264
L51048 27236
L51104 27208
" />
<path d="M52004 27798
L52004 27404
" />
<path d="M52004 27208
L51976 27236
L52004 27264
L52032 27236
L52004 27208
L52004 27264
" />
<path d="M52285 27404
L52285 27798
" />
<path d="M52285 27461
L52313 27433
L52370 27404
L52454 27404
L52510 27433
L52538 27489
L52538 27798
" />
<path d="M55000 27000
L46000 27000
" />
<path d="M55000 27000
L55000 28062
" />
<path d="M46000 27000
L46000 28062
" />
<path d="M46000 27000
L46443 26769
" />
<path d="M46000 27000
L46443 27230
" />
<path d="M55000 27000
L54556 26769
" />
<path d="M55000 27000
L54556 27230
" />
<path d="M48573 20676
L48629 20676
L48686 20704
L48714 20732
L48742 20789
L48770 20901
L48770 21042
L48742 21154
L48714 21210
L48686 21239
L48629 21267
L48573 21267
L48517 21239
L48489 21210
L48461 21154
L48433 21042
L48433 20901
L48461 20789
L48489 20732
L48517 20704
L48573 20676
" />
<path d="M49023 21210
L49051 21239
L49023 21267
L48995 21239
L49023 21210
L49023 21267
" />
<path d="M49276 20732
L49304 20704
L49361 20676
L49501 20676
L49557 20704
L49586 20732
L49614 20789
L49614 20845
L49586 20929
L49248 21267
L49614 21267
" />
<path d="M49979 20676
L50035 20676
L50092 20704
L50120 20732
L50148 20789
L50176 20901
L50176 21042
L50148 21154
L50120 21210
L50092 21239
L50035 21267
L49979 21267
L49923 21239
L49895 21210
L49867 21154
L49839 21042
L49839 20901
L49867 20789
L49895 20732
L49923 20704
L49979 20676
" />
<path d="M50542 20676
L50598 20676
L50654 20704
L50682 20732
L50710 20789
L50739 20901
L50739 21042
L50710 21154
L50682 21210
L50654 21239
L50598 21267
L50542 21267
L50485 21239
L50457 21210
L50429 21154
L50401 21042
L50401 20901
L50429 20789
L50457 20732
L50485 20704
L50542 20676
" />
<path d="M51104 20676
L51160 20676
L51217 20704
L51245 20732
L51273 20789
L51301 20901
L51301 21042
L51273 21154
L51245 21210
L51217 21239
L51160 21267
L51104 21267
L51048 21239
L51020 21210
L50992 21154
L50964 21042
L50964 20901
L50992 20789
L51020 20732
L51048 20704
L51104 20676
" />
<path d="M52004 21267
L52004 20873
" />
<path d="M52004 20676
L51976 20704
L52004 20732
L52032 20704
L52004 20676
L52004 20732
" />
<path d="M52285 20873
L52285 21267
" />
<path d="M52285 20929
L52313 20901
L52370 20873
L52454 20873
L52510 20901
L52538 20957
L52538 21267
" />
<path d="M48000 20500
L46000 20500
" />
<path d="M48000 24500
L48000 19437
" />
<path d="M46000 24500
L46000 19437
" />
<path d="M46000 20500
L46443 20269
" />
<path d="M46000 20500
L46443 20730
" />
<path d="M48000 20500
L47556 20269
" />
<path d="M48000 20500
L47556 20730
" />
<path d="M53676 23926
L53676 23870
L53704 23813
L53732 23785
L53789 23757
L53901 23729
L54042 23729
L54154 23757
L54210 23785
L54239 23813
L54267 23870
L54267 23926
L54239 23982
L54210 24010
L54154 24038
L54042 24066
L53901 24066
L53789 24038
L53732 24010
L53704 23982
L53676 23926
" />
<path d="M54210 23476
L54239 23448
L54267 23476
L54239 23504
L54210 23476
L54267 23476
" />
<path d="M53732 23223
L53704 23195
L53676 23138
L53676 22998
L53704 22942
L53732 22913
L53789 22885
L53845 22885
L53929 22913
L54267 23251
L54267 22885
" />
<path d="M53676 22520
L53676 22464
L53704 22407
L53732 22379
L53789 22351
L53901 22323
L54042 22323
L54154 22351
L54210 22379
L54239 22407
L54267 22464
L54267 22520
L54239 22576
L54210 22604
L54154 22632
L54042 22660
L53901 22660
L53789 22632
L53732 22604
L53704 22576
L53676 22520
" />
<path d="M53676 21957
L53676 21901
L53704 21845
L53732 21817
L53789 21789
L53901 21760
L54042 21760
L54154 21789
L54210 21817
L54239 21845
L54267 21901
L54267 21957
L54239 22014
L54210 22042
L54154 22070
L54042 22098
L53901 22098
L53789 22070
L53732 22042
L53704 22014
L53676 21957
" />
<path d="M53676 21395
L53676 21339
L53704 21282
L53732 21254
L53789 21226
L53901 21198
L54042 21198
L54154 21226
L54210 21254
L54239 21282
L54267 21339
L54267 21395
L54239 21451
L54210 21479
L54154 21507
L54042 21535
L53901 21535
L53789 21507
L53732 21479
L53704 21451
L53676 21395
" />
<path d="M54267 20495
L53873 20495
" />
<path d="M53676 20495
L53704 20523
L53732 20495
L53704 20467
L53676 20495
L53732 20495
" />
<path d="M53873 20214
L54267 20214
" />
<path d="M53929 20214
L53901 20186
L53873 20129
L53873 20045
L53901 19989
L53957 19961
L54267 19961
" />
<path d="M51000 24500
L51000 22500
" />
<path d="M48000 24500
L52062 24500
" />
<path d="M48000 22500
L52062 22500
" />
<path d="M51000 22500
L51230 22943
" />
<path d="M51000 22500
L50769 22943
" />
<path d="M51000 24500
L51230 24056
" />
<path d="M51000 24500
L50769 24056
" />
</g>
<g style="fill:#000000; fill-opacity:0.0; 
stroke:#000000; stroke-width:118.11; stroke-opacity:1; 
stroke-linecap:round; stroke-linejoin:round;">
</g>
<g style="fill:#C2C200; fill-opacity:0.0; 
stroke:#C2C200; stroke-width:118.11; stroke-opacity:1; 
stroke-linecap:round; stroke-linejoin:round;">
</g>
<g style="fill:#C2C200; fill-opacity:0.0; 
stroke:#C2C200; stroke-width:59.0551; stroke-opacity:1; 
stroke-linecap:round; stroke-linejoin:round;">
<path d="M73000 22500
L73000 57500
" />
<path d="M46000 22500
L73000 22500
" />
<path d="M46000 22500
L46000 57500
" />
<path d="M73000 57500
L46000 57500
" />
</g> 
</svg>
